<svg width="360" height="339" viewBox="0 0 360 339" fill="none" xmlns="http://www.w3.org/2000/svg">
<rect x="216.554" width="146.418" height="146.418" rx="10.4584" transform="rotate(11.5626 216.554 0)" fill="url(#paint0_radial_29_104)"/>
<g clip-path="url(#clip0_29_104)" filter="url(#filter0_i_29_104)">
<path d="M232.124 119.208L242.461 34.8877L322.105 51.1822L298.495 132.787L263.273 135.953L232.124 119.208Z" fill="#1172B8"/>
<path d="M314.11 56.4613L280.925 49.6719L264.291 130.975L292.536 128.111L314.11 56.4613Z" fill="#33AADD"/>
<path d="M284.053 93.5296L250.868 86.7402L251.585 74.7859L279.83 71.9212L253.282 66.4897L253.66 56.1947L305.097 66.7182L301.061 77.9935L277.794 81.8767L297.705 85.9503L287.936 116.797L266.667 119.361L248.114 108.65L249.85 91.718L259.805 93.7548L259.767 102.39L269.044 107.746L279.678 106.464L284.053 93.5296Z" fill="white"/>
</g>
<rect x="0.00012207" y="200.701" width="146.418" height="146.418" rx="10.4584" transform="rotate(-20.0092 0.00012207 200.701)" fill="url(#paint1_radial_29_104)"/>
<g clip-path="url(#clip1_29_104)" filter="url(#filter1_i_29_104)">
<rect x="32.814" y="215.996" width="94.8429" height="94.8429" transform="rotate(-20.0092 32.814 215.996)" fill="#FFCA28"/>
<path d="M113.912 270.412L118.892 263.681C119.995 265.11 124.648 267.761 128.761 266.263C132.875 264.765 133.966 261.823 133.424 260.334C131.946 256.275 127.225 256.374 124.957 256.421C124.588 256.429 124.283 256.435 124.069 256.422C123.959 256.415 123.795 256.412 123.585 256.409C121.029 256.369 111.6 256.221 108.262 247.054C104.585 236.957 113.907 232.247 116.11 231.445C117.552 230.92 124.548 228.573 130.362 233.803L125.614 240.563C123.189 238.244 120.531 238.155 119.103 238.675C115.578 239.958 115.784 242.811 116.213 243.987C117.415 247.288 121.784 247.373 125.473 247.445C126.439 247.463 127.357 247.481 128.16 247.555C132.293 247.938 138.476 248.774 141.601 257.356C143.166 261.655 142.095 269.927 133.019 273.232C120.826 277.672 114.929 271.529 113.912 270.412Z" fill="#3E3E3E"/>
<path d="M82.3981 282.865L87.6566 276.035C88.7805 277.454 91.9469 279.673 94.9682 278.573C97.9895 277.473 98.4058 273.806 97.8638 272.318L87.2065 243.052L95.6171 239.989L106.274 269.255C107.88 273.242 108.582 282.131 98.7012 285.729C89.6168 289.037 83.8741 285.013 82.3981 282.865Z" fill="#3E3E3E"/>
</g>
<rect x="26.09" y="42.1951" width="146.418" height="146.418" rx="10.4584" transform="rotate(-14.2238 26.09 42.1951)" fill="url(#paint2_radial_29_104)"/>
<g clip-path="url(#clip2_29_104)" filter="url(#filter2_i_29_104)">
<path d="M91.9678 142.759L64.594 62.3387L143.396 42.364L157.636 126.114L127.299 144.287L91.9678 142.759Z" fill="#E44D26"/>
<path d="M138.493 50.5954L105.659 58.9182L126.05 139.362L150.237 124.495L138.493 50.5954Z" fill="#F16529"/>
<path d="M94.7207 105.371L83.5306 75.0105L134.423 62.1102L135.279 72.3765L95.8777 82.3639L100.432 93.4397L136.55 84.2846L141.173 116.309L123.137 127.87L101.772 126.297L95.9691 110.296L105.819 107.799L109.542 115.591L120.224 116.378L129.242 110.598L127.555 97.0478L94.7207 105.371Z" fill="white"/>
</g>
<rect x="219.297" y="138.051" width="146.418" height="146.418" rx="10.4584" transform="rotate(17.7517 219.297 138.051)" fill="url(#paint3_radial_29_104)"/>
<g clip-path="url(#clip3_29_104)" filter="url(#filter3_i_29_104)">
<path d="M296.019 193.464C296.926 190.628 293.752 189.612 292.227 189.515C294.702 188.587 296.897 189.707 297.569 190.443L313.651 205.904C315.183 207.377 315.743 209.601 315.092 211.633L295.393 273.167C294.733 275.226 292.95 276.722 290.814 277.005L270.147 279.746C268.742 279.882 265.641 280.335 263.974 277.77C266.625 279.205 268.797 277.686 269.467 276.402L296.019 193.464Z" fill="url(#paint4_linear_29_104)"/>
<path d="M292.473 189.537C294.065 189.72 296.88 190.773 296.019 193.464L289.238 214.644L217.396 239.882C216.14 240.323 214.758 239.741 214.195 238.534L210.299 230.175C209.689 228.866 210.26 227.305 211.572 226.7L292.228 189.514L292.473 189.537Z" fill="url(#paint5_linear_29_104)"/>
<path d="M276.135 255.576L232.306 193.308C231.54 192.219 230.076 191.891 228.917 192.547L220.891 197.088C219.634 197.8 219.193 199.402 219.909 200.656L263.974 277.77C266.626 279.205 268.797 277.686 269.467 276.402L276.135 255.576Z" fill="url(#paint6_linear_29_104)"/>
</g>
<defs>
<filter id="filter0_i_29_104" x="204.715" y="22.2164" width="132.701" height="132.701" filterUnits="userSpaceOnUse" color-interpolation-filters="sRGB">
<feFlood flood-opacity="0" result="BackgroundImageFix"/>
<feBlend mode="normal" in="SourceGraphic" in2="BackgroundImageFix" result="shape"/>
<feColorMatrix in="SourceAlpha" type="matrix" values="0 0 0 0 0 0 0 0 0 0 0 0 0 0 0 0 0 0 127 0" result="hardAlpha"/>
<feOffset dx="-4.78251" dy="4.78251"/>
<feGaussianBlur stdDeviation="4.78251"/>
<feComposite in2="hardAlpha" operator="arithmetic" k2="-1" k3="1"/>
<feColorMatrix type="matrix" values="0 0 0 0 0.0901961 0 0 0 0 0.568627 0 0 0 0 0.823529 0 0 0 1 0"/>
<feBlend mode="normal" in2="shape" result="effect1_innerShadow_29_104"/>
</filter>
<filter id="filter1_i_29_104" x="24.1302" y="174.86" width="138.938" height="138.938" filterUnits="userSpaceOnUse" color-interpolation-filters="sRGB">
<feFlood flood-opacity="0" result="BackgroundImageFix"/>
<feBlend mode="normal" in="SourceGraphic" in2="BackgroundImageFix" result="shape"/>
<feColorMatrix in="SourceAlpha" type="matrix" values="0 0 0 0 0 0 0 0 0 0 0 0 0 0 0 0 0 0 127 0" result="hardAlpha"/>
<feOffset/>
<feGaussianBlur stdDeviation="9.56503"/>
<feComposite in2="hardAlpha" operator="arithmetic" k2="-1" k3="1"/>
<feColorMatrix type="matrix" values="0 0 0 0 1 0 0 0 0 0.917513 0 0 0 0 0.665384 0 0 0 1 0"/>
<feBlend mode="normal" in2="shape" result="effect1_innerShadow_29_104"/>
</filter>
<filter id="filter2_i_29_104" x="44.181" y="29.1847" width="136.484" height="136.484" filterUnits="userSpaceOnUse" color-interpolation-filters="sRGB">
<feFlood flood-opacity="0" result="BackgroundImageFix"/>
<feBlend mode="normal" in="SourceGraphic" in2="BackgroundImageFix" result="shape"/>
<feColorMatrix in="SourceAlpha" type="matrix" values="0 0 0 0 0 0 0 0 0 0 0 0 0 0 0 0 0 0 127 0" result="hardAlpha"/>
<feOffset dx="-4.78251" dy="4.78251"/>
<feGaussianBlur stdDeviation="4.78251"/>
<feComposite in2="hardAlpha" operator="arithmetic" k2="-1" k3="1"/>
<feColorMatrix type="matrix" values="0 0 0 0 0.952941 0 0 0 0 0.627451 0 0 0 0 0.329412 0 0 0 1 0"/>
<feBlend mode="normal" in2="shape" result="effect1_innerShadow_29_104"/>
</filter>
<filter id="filter3_i_29_104" x="198.439" y="161.72" width="136.279" height="136.279" filterUnits="userSpaceOnUse" color-interpolation-filters="sRGB">
<feFlood flood-opacity="0" result="BackgroundImageFix"/>
<feBlend mode="normal" in="SourceGraphic" in2="BackgroundImageFix" result="shape"/>
<feColorMatrix in="SourceAlpha" type="matrix" values="0 0 0 0 0 0 0 0 0 0 0 0 0 0 0 0 0 0 127 0" result="hardAlpha"/>
<feOffset/>
<feGaussianBlur stdDeviation="4.78251"/>
<feComposite in2="hardAlpha" operator="arithmetic" k2="-1" k3="1"/>
<feColorMatrix type="matrix" values="0 0 0 0 0.219608 0 0 0 0 0.741176 0 0 0 0 0.972549 0 0 0 1 0"/>
<feBlend mode="normal" in2="shape" result="effect1_innerShadow_29_104"/>
</filter>
<radialGradient id="paint0_radial_29_104" cx="0" cy="0" r="1" gradientUnits="userSpaceOnUse" gradientTransform="translate(317.582 54.9067) rotate(134.793) scale(143.394)">
<stop stop-color="#0630A4"/>
<stop offset="0.45991" stop-color="#021F7B"/>
<stop offset="1" stop-color="#040949"/>
</radialGradient>
<radialGradient id="paint1_radial_29_104" cx="0" cy="0" r="1" gradientUnits="userSpaceOnUse" gradientTransform="translate(73.209 281.231) rotate(123.867) scale(131.371)">
<stop offset="0.12409" stop-color="#92860A"/>
<stop offset="0.663462" stop-color="#504503"/>
<stop offset="1" stop-color="#292306" stop-opacity="0.933333"/>
</radialGradient>
<radialGradient id="paint2_radial_29_104" cx="0" cy="0" r="1" gradientUnits="userSpaceOnUse" gradientTransform="translate(146.885 70.7466) rotate(132.783) scale(160.596)">
<stop stop-color="#FAAE5D"/>
<stop offset="0.43" stop-color="#BD2B04"/>
<stop offset="1" stop-color="#510B01"/>
</radialGradient>
<radialGradient id="paint3_radial_29_104" cx="0" cy="0" r="1" gradientUnits="userSpaceOnUse" gradientTransform="translate(320.326 192.958) rotate(134.793) scale(143.394)">
<stop stop-color="#44AADA"/>
<stop offset="0.45991" stop-color="#3083C4"/>
<stop offset="1" stop-color="#105F93"/>
</radialGradient>
<linearGradient id="paint4_linear_29_104" x1="306.167" y1="192.741" x2="277.25" y2="283.068" gradientUnits="userSpaceOnUse">
<stop stop-color="#32B5F1"/>
<stop offset="1" stop-color="#2B9FED"/>
</linearGradient>
<linearGradient id="paint5_linear_29_104" x1="293.523" y1="201.261" x2="211.747" y2="234.73" gradientUnits="userSpaceOnUse">
<stop stop-color="#0F6FB3"/>
<stop offset="0.270551" stop-color="#1279B7"/>
<stop offset="0.421376" stop-color="#1176B5"/>
<stop offset="0.618197" stop-color="#0E69AC"/>
<stop offset="0.855344" stop-color="#0F70AF"/>
<stop offset="1" stop-color="#0F6DAD"/>
</linearGradient>
<linearGradient id="paint6_linear_29_104" x1="224.903" y1="195.12" x2="272.139" y2="268.915" gradientUnits="userSpaceOnUse">
<stop stop-color="#1791D2"/>
<stop offset="1" stop-color="#1173C5"/>
</linearGradient>
<clipPath id="clip0_29_104">
<rect width="108.392" height="108.392" fill="white" transform="translate(231.224 22.2164) rotate(11.5626)"/>
</clipPath>
<clipPath id="clip1_29_104">
<rect width="108.392" height="108.392" fill="white" transform="translate(24.1302 211.948) rotate(-20.0092)"/>
</clipPath>
<clipPath id="clip2_29_104">
<rect width="108.392" height="108.392" fill="white" transform="translate(48.9635 55.8176) rotate(-14.2238)"/>
</clipPath>
<clipPath id="clip3_29_104">
<rect width="108.392" height="108.392" fill="white" transform="translate(231.487 161.72) rotate(17.7517)"/>
</clipPath>
</defs>
</svg>
